<svg width="16" height="11" viewBox="0 0 16 11" fill="none" xmlns="http://www.w3.org/2000/svg">
<path fill-rule="evenodd" clip-rule="evenodd" d="M13.8242 2.5878L8.21021 6.92621C8.10748 7.00525 7.98341 7.04477 7.85934 7.04477C7.73471 7.04477 7.61064 7.00525 7.5079 6.92621L1.89386 2.5878C1.6519 2.40104 1.61316 2.05998 1.80685 1.82666C2.00109 1.59388 2.35478 1.55653 2.59618 1.74275L7.85934 5.80994L13.1219 1.74275C13.3639 1.55598 13.717 1.59334 13.9113 1.82666C14.105 2.05998 14.0662 2.40104 13.8242 2.5878ZM14.5965 0.00012207H1.12281C0.502456 0.00012207 0 0.484633 0 1.08283V9.20313C0 9.80078 0.502456 10.2858 1.12281 10.2858H14.5965C15.2163 10.2858 15.7193 9.80078 15.7193 9.20313V1.08283C15.7193 0.484633 15.2163 0.00012207 14.5965 0.00012207Z" fill="#93DD81"/>
</svg>
